<svg width="39" height="60" viewBox="0 0 39 60" fill="none" xmlns="http://www.w3.org/2000/svg">
<path fill-rule="evenodd" clip-rule="evenodd" d="M38.2909 6.89144C38.2909 7.10241 38.2909 7.28324 38.2909 7.46408C38.2909 21.75 38.2909 36.0059 38.2909 50.2918C38.2909 51.407 37.9221 52.0098 36.9007 52.1303C35.9361 52.2509 34.9432 52.1605 33.9219 52.1605C33.9219 51.9796 33.9219 51.7988 33.9219 51.618C33.9219 37.3621 33.9219 23.1063 33.9219 8.82034C33.9219 7.64491 34.3191 7.04213 35.3687 6.92158C36.305 6.80102 37.2979 6.89144 38.2909 6.89144Z" fill="#0E9346"/>
<path fill-rule="evenodd" clip-rule="evenodd" d="M5.2397 18.5554C5.2397 18.8266 5.2397 19.0376 5.2397 19.2184C5.2397 31.9975 5.2397 44.7765 5.2397 57.5555C5.2397 58.9117 4.70067 59.5145 3.42401 59.5748C2.71476 59.6049 2.00551 59.5748 1.29625 59.6049C1.01255 59.6049 0.870701 59.4844 0.899071 59.183C0.899071 59.0323 0.899071 58.8816 0.899071 58.7309C0.899071 46.1327 0.899071 33.5044 0.899071 20.9062C0.899071 19.2787 1.32462 18.6458 3.11194 18.5855C3.76445 18.5252 4.4737 18.5554 5.2397 18.5554Z" fill="#0E9346"/>
<path fill-rule="evenodd" clip-rule="evenodd" d="M31.6241 11.1711C31.6241 11.4122 31.6524 11.6232 31.6524 11.8342C31.6524 24.6132 31.6524 37.3922 31.6524 50.1712C31.6524 51.5576 31.1134 52.1604 29.78 52.2207C29.0991 52.2508 28.3899 52.2207 27.709 52.2508C27.3969 52.2508 27.2834 52.1302 27.3118 51.7987C27.3402 51.5576 27.3118 51.2863 27.3118 51.0151C27.3118 38.4772 27.3118 25.9393 27.3118 13.3713C27.3118 11.8342 27.7657 11.2615 29.241 11.1711C30.007 11.141 30.773 11.1711 31.6241 11.1711Z" fill="#0E9346"/>
<path fill-rule="evenodd" clip-rule="evenodd" d="M18.4886 18.5855C18.4886 18.8568 18.4886 19.0678 18.4886 19.2486C18.4886 29.526 18.4886 39.8336 18.4886 50.1111C18.4886 51.5276 17.9496 52.1304 16.6162 52.1907C15.8502 52.2208 15.1126 52.1907 14.3466 52.1907C14.2899 52.1907 14.2331 52.1605 14.1196 52.1304C14.1196 51.9194 14.1196 51.7085 14.1196 51.4674C14.1196 41.22 14.1196 31.0029 14.1196 20.7555C14.1196 19.2486 14.5168 18.7362 15.9069 18.5554C16.7013 18.4951 17.5524 18.5855 18.4886 18.5855Z" fill="#0E9346"/>
<path fill-rule="evenodd" clip-rule="evenodd" d="M25.0703 18.5552C25.0703 18.7963 25.0703 19.0073 25.0703 19.1881C25.0703 29.556 25.0703 39.8937 25.0703 50.2616C25.0703 51.5576 24.5313 52.1603 23.283 52.2206C22.5454 52.2508 21.8361 52.2206 21.0985 52.2508C20.8148 52.2508 20.6729 52.1302 20.7013 51.8288C20.7013 51.6781 20.7013 51.5274 20.7013 51.3767C20.7013 41.25 20.7013 31.1232 20.7013 20.9965C20.7013 19.3991 21.0134 18.6757 22.9709 18.6155C23.6234 18.5552 24.3043 18.5552 25.0703 18.5552Z" fill="#0E9346"/>
<path fill-rule="evenodd" clip-rule="evenodd" d="M7.50928 52.2208C7.50928 51.9194 7.50928 51.6783 7.50928 51.4372C7.50928 41.1898 7.50928 30.9727 7.50928 20.7253C7.50928 19.2485 7.84972 18.7663 9.23985 18.5855C10.091 18.495 10.9421 18.5553 11.8215 18.5553C11.8215 18.7663 11.8499 18.9773 11.8499 19.1581C11.8499 29.4958 11.8499 39.8336 11.8499 50.1713C11.8499 51.5276 11.3109 52.1304 10.0626 52.1605C9.23985 52.2208 8.41712 52.2208 7.50928 52.2208Z" fill="#0E9346"/>
<path fill-rule="evenodd" clip-rule="evenodd" d="M9.66556 15.9633C8.41727 15.9633 7.42432 14.9084 7.42432 13.6124C7.42432 12.2863 8.44564 11.1711 9.69392 11.2013C10.9422 11.2013 11.9352 12.2863 11.9352 13.6426C11.9068 14.9385 10.9422 15.9633 9.66556 15.9633Z" fill="#0E9346"/>
<path fill-rule="evenodd" clip-rule="evenodd" d="M22.8858 15.9635C21.6091 15.9635 20.6445 14.9388 20.6445 13.5524C20.6445 12.2263 21.6659 11.1714 22.8858 11.1714C24.1341 11.1714 25.1554 12.2865 25.127 13.6127C25.127 14.9086 24.1341 15.9635 22.8858 15.9635Z" fill="#0E9346"/>
<path fill-rule="evenodd" clip-rule="evenodd" d="M16.2755 15.9633C15.0272 15.9633 14.0342 14.9385 14.0059 13.6124C14.0059 12.2863 15.0272 11.1711 16.2755 11.2013C17.5238 11.2013 18.5451 12.3164 18.5167 13.6426C18.5167 14.9385 17.5238 15.9633 16.2755 15.9633Z" fill="#0E9346"/>
<path fill-rule="evenodd" clip-rule="evenodd" d="M31.6236 56.5607C31.6236 57.8567 30.6023 58.9417 29.3824 58.9417C28.1341 58.9417 27.1128 57.8567 27.1128 56.5305C27.1128 55.2044 28.1057 54.1797 29.354 54.1797C30.6591 54.1797 31.6236 55.2044 31.6236 56.5607Z" fill="#0E9346"/>
<path fill-rule="evenodd" clip-rule="evenodd" d="M38.2625 4.93237C36.8157 4.93237 35.3972 4.93237 33.9787 4.93237C33.695 2.70207 36.078 0.170382 38.2625 0.411495C38.2625 1.88831 38.2625 3.36513 38.2625 4.93237Z" fill="#0E9346"/>
</svg>
