<svg width="46" height="68" viewBox="0 0 46 68" fill="none" xmlns="http://www.w3.org/2000/svg">
<rect width="45.186" height="67" transform="translate(0.813965 0.5)" fill="white"/>
<path fill-rule="evenodd" clip-rule="evenodd" d="M42.1048 10.8914C42.1048 11.1024 42.1048 11.2832 42.1048 11.4641C42.1048 25.75 42.1048 40.0059 42.1048 54.2918C42.1048 55.407 41.736 56.0098 40.7147 56.1303C39.7501 56.2509 38.7572 56.1605 37.7358 56.1605C37.7358 55.9796 37.7358 55.7988 37.7358 55.618C37.7358 41.3621 37.7358 27.1063 37.7358 12.8203C37.7358 11.6449 38.133 11.0421 39.1827 10.9216C40.1189 10.801 41.1119 10.8914 42.1048 10.8914Z" fill="#0E9346"/>
<path fill-rule="evenodd" clip-rule="evenodd" d="M9.05366 22.5554C9.05366 22.8266 9.05366 23.0376 9.05366 23.2184C9.05366 35.9975 9.05366 48.7765 9.05366 61.5555C9.05366 62.9117 8.51463 63.5145 7.23798 63.5748C6.52872 63.6049 5.81947 63.5748 5.11022 63.6049C4.82652 63.6049 4.68467 63.4844 4.71304 63.183C4.71304 63.0323 4.71304 62.8816 4.71304 62.7309C4.71304 50.1327 4.71304 37.5044 4.71304 24.9062C4.71304 23.2787 5.13859 22.6458 6.9259 22.5855C7.57842 22.5252 8.28767 22.5554 9.05366 22.5554Z" fill="#0E9346"/>
<path fill-rule="evenodd" clip-rule="evenodd" d="M35.438 15.1711C35.438 15.4122 35.4664 15.6232 35.4664 15.8342C35.4664 28.6132 35.4664 41.3922 35.4664 54.1712C35.4664 55.5576 34.9274 56.1604 33.594 56.2207C32.9131 56.2508 32.2038 56.2207 31.523 56.2508C31.2109 56.2508 31.0974 56.1302 31.1258 55.7987C31.1542 55.5576 31.1258 55.2863 31.1258 55.0151C31.1258 42.4772 31.1258 29.9393 31.1258 17.3713C31.1258 15.8342 31.5797 15.2615 33.0549 15.1711C33.8209 15.141 34.5869 15.1711 35.438 15.1711Z" fill="#0E9346"/>
<path fill-rule="evenodd" clip-rule="evenodd" d="M22.3026 22.5855C22.3026 22.8568 22.3026 23.0678 22.3026 23.2486C22.3026 33.526 22.3026 43.8336 22.3026 54.1111C22.3026 55.5276 21.7636 56.1304 20.4302 56.1907C19.6642 56.2208 18.9265 56.1907 18.1606 56.1907C18.1038 56.1907 18.0471 56.1605 17.9336 56.1304C17.9336 55.9194 17.9336 55.7085 17.9336 55.4674C17.9336 45.22 17.9336 35.0029 17.9336 24.7555C17.9336 23.2486 18.3308 22.7362 19.7209 22.5554C20.5153 22.4951 21.3664 22.5855 22.3026 22.5855Z" fill="#0E9346"/>
<path fill-rule="evenodd" clip-rule="evenodd" d="M28.8843 22.5552C28.8843 22.7963 28.8843 23.0073 28.8843 23.1881C28.8843 33.556 28.8843 43.8937 28.8843 54.2616C28.8843 55.5576 28.3452 56.1603 27.097 56.2206C26.3593 56.2508 25.6501 56.2206 24.9125 56.2508C24.6288 56.2508 24.4869 56.1302 24.5153 55.8288C24.5153 55.6781 24.5153 55.5274 24.5153 55.3767C24.5153 45.25 24.5153 35.1232 24.5153 24.9965C24.5153 23.3991 24.8274 22.6757 26.7849 22.6155C27.4374 22.5552 28.1183 22.5552 28.8843 22.5552Z" fill="#0E9346"/>
<path fill-rule="evenodd" clip-rule="evenodd" d="M11.3232 56.2208C11.3232 55.9194 11.3232 55.6783 11.3232 55.4372C11.3232 45.1898 11.3232 34.9727 11.3232 24.7253C11.3232 23.2485 11.6637 22.7663 13.0538 22.5855C13.9049 22.495 14.756 22.5553 15.6355 22.5553C15.6355 22.7663 15.6639 22.9773 15.6639 23.1581C15.6639 33.4958 15.6639 43.8336 15.6639 54.1713C15.6639 55.5276 15.1248 56.1304 13.8766 56.1605C13.0538 56.2208 12.2311 56.2208 11.3232 56.2208Z" fill="#0E9346"/>
<path fill-rule="evenodd" clip-rule="evenodd" d="M13.4795 19.9633C12.2312 19.9633 11.2383 18.9084 11.2383 17.6124C11.2383 16.2863 12.2596 15.1711 13.5079 15.2013C14.7562 15.2013 15.7491 16.2863 15.7491 17.6426C15.7208 18.9385 14.7562 19.9633 13.4795 19.9633Z" fill="#0E9346"/>
<path fill-rule="evenodd" clip-rule="evenodd" d="M26.6997 19.9635C25.4231 19.9635 24.4585 18.9388 24.4585 17.5524C24.4585 16.2263 25.4798 15.1714 26.6997 15.1714C27.948 15.1714 28.9693 16.2865 28.941 17.6127C28.941 18.9086 27.948 19.9635 26.6997 19.9635Z" fill="#0E9346"/>
<path fill-rule="evenodd" clip-rule="evenodd" d="M20.0894 19.9633C18.8411 19.9633 17.8482 18.9385 17.8198 17.6124C17.8198 16.2863 18.8411 15.1711 20.0894 15.2013C21.3377 15.2013 22.359 16.3164 22.3307 17.6426C22.3307 18.9385 21.3377 19.9633 20.0894 19.9633Z" fill="#0E9346"/>
<path fill-rule="evenodd" clip-rule="evenodd" d="M35.4376 60.5607C35.4376 61.8567 34.4163 62.9417 33.1964 62.9417C31.9481 62.9417 30.9268 61.8567 30.9268 60.5305C30.9268 59.2044 31.9197 58.1797 33.168 58.1797C34.473 58.1797 35.4376 59.2044 35.4376 60.5607Z" fill="#0E9346"/>
<path fill-rule="evenodd" clip-rule="evenodd" d="M42.0765 8.93237C40.6296 8.93237 39.2111 8.93237 37.7926 8.93237C37.5089 6.70207 39.892 4.17038 42.0765 4.41149C42.0765 5.88831 42.0765 7.36513 42.0765 8.93237Z" fill="#0E9346"/>
</svg>
