<svg width="48" height="48" viewBox="0 0 48 48" fill="none" xmlns="http://www.w3.org/2000/svg">
<path d="M0 24C0 10.7452 10.7452 0 24 0C37.2548 0 48 10.7452 48 24C48 37.2548 37.2548 48 24 48C10.7452 48 0 37.2548 0 24Z" fill="#F3FCF6"/>
<path fill-rule="evenodd" clip-rule="evenodd" d="M23.9001 28.4159C24.3321 28.6419 24.7741 28.7549 25.2201 28.7549L25.2211 28.7539C25.4281 28.7539 25.6371 28.7289 25.8461 28.6799L27.9961 28.0919C28.8641 27.9689 29.0811 27.3799 29.1531 27.1829C29.4051 26.4939 28.9131 25.967 28.6841 25.748C28.5521 25.578 28.3311 25.3349 28.0961 25.0789L28.0201 24.9959C28.0146 24.9894 28.0091 24.9827 28.0036 24.9759C27.9981 24.9691 27.9926 24.9624 27.9871 24.9559C28.0471 24.9399 28.1071 24.9249 28.1671 24.9099C28.2185 24.8967 28.2715 24.8832 28.3262 24.8692C28.6751 24.7802 29.0898 24.6743 29.5471 24.5489L29.8091 24.4779L29.8204 24.4749C30.7969 24.2088 31.8051 23.9342 32.3131 23.7429C33.7621 23.1989 34.0911 22.3569 34.2071 21.7619C34.2651 21.5259 34.3831 20.9079 33.7481 18.6539L33.7406 18.6254C33.6736 18.3703 33.2824 16.8821 33.1871 16.5829C32.9851 15.8799 32.4581 15.0919 31.0941 15.2829L31.0391 15.2929C30.9291 15.3169 29.5811 15.6659 29.2631 15.8249L29.2131 15.8529C28.4251 16.3259 28.2851 17.2409 28.1831 17.9089C28.1814 17.92 28.1797 17.931 28.178 17.942C28.147 18.1416 28.1179 18.3287 28.0771 18.4709L28.0661 18.5159C27.9391 19.0949 27.7901 19.1339 27.3601 19.2059C25.4548 19.3431 21.4976 19.6606 20.7544 19.7202C20.68 19.7262 20.6379 19.7295 20.6331 19.7299C18.6541 19.9039 16.9361 20.7439 15.6641 22.1599C14.6391 23.3009 13.9491 24.7829 13.7701 26.2279C13.6811 26.8679 13.8761 27.4379 14.3221 27.8349C14.7591 28.2239 15.4091 28.3919 15.9461 28.2499L21.1711 26.8249L21.2371 26.8039C21.3071 26.7779 21.3761 26.7629 21.5121 26.8539L23.8371 28.3789L23.9001 28.4159ZM25.4891 27.2239C25.1981 27.2889 24.9231 27.2509 24.6261 27.1019L24.6271 27.1049L22.3401 25.6049C21.8471 25.2759 21.2831 25.1999 20.7471 25.3879L15.5611 26.8019C15.5131 26.8069 15.3871 26.7829 15.3121 26.7089C15.2891 26.6869 15.2281 26.6269 15.2561 26.4349L15.2581 26.4199C15.4601 24.7729 16.8701 21.5679 20.7591 21.2259C20.8051 21.2219 25.4291 20.8489 27.5021 20.7009L27.5721 20.6929C28.4041 20.5539 29.2161 20.236 29.5261 18.861C29.591 18.6266 29.6289 18.3792 29.6658 18.1388L29.6661 18.1369C29.7231 17.7621 29.7932 17.3008 29.9571 17.1609C30.2091 17.0679 31.1181 16.8169 31.3341 16.7659C31.6531 16.7219 31.6711 16.7379 31.7461 17.0049L31.7581 17.0449C31.8131 17.2119 32.2081 18.6969 32.2971 19.0409L32.3011 19.0559C32.7291 20.5729 32.7781 21.2659 32.7451 21.4199L32.7351 21.4639C32.6941 21.6859 32.6311 22.022 31.7841 22.34C31.3391 22.507 30.3161 22.786 29.4131 23.032L29.1501 23.1039C28.6552 23.2392 28.2071 23.3533 27.8422 23.4462L27.7961 23.4579C27.7707 23.4644 27.7455 23.4708 27.7207 23.4771C27.3602 23.5691 27.0725 23.6424 26.8601 23.707C26.5951 23.787 26.0421 23.9549 26.0001 24.5259C25.9881 24.6909 26.0281 24.8479 26.1101 24.9829C26.2152 25.2505 26.4351 25.4856 26.6502 25.7155L26.6561 25.7219C26.7341 25.8049 26.8151 25.892 26.8561 25.944L26.9901 26.094C27.1181 26.233 27.4111 26.552 27.5021 26.673L25.4891 27.2239Z" fill="#067647"/>
<path d="M14.4981 32.751H30.4981C30.9121 32.751 31.2481 32.415 31.2481 32.001C31.2481 31.587 30.9121 31.251 30.4981 31.251H14.4981C14.0841 31.251 13.7481 31.587 13.7481 32.001C13.7481 32.415 14.0841 32.751 14.4981 32.751Z" fill="#067647"/>
</svg>
