<svg xmlns="http://www.w3.org/2000/svg" width="18" height="18" viewBox="0 0 18 18" fill="none">
              <path
                d="M9.00008 5.45817C8.42478 5.45817 7.95842 5.92454 7.95842 6.49984C7.95842 6.84502 7.67859 7.12484 7.33342 7.12484C6.98824 7.12484 6.70842 6.84502 6.70842 6.49984C6.70842 5.23418 7.73443 4.20817 9.00008 4.20817C10.2657 4.20817 11.2917 5.23418 11.2917 6.49984C11.2917 6.95512 11.1583 7.38115 10.9283 7.7387C10.7842 7.96265 10.6157 8.17646 10.4603 8.36953L10.3765 8.47339C10.2477 8.63289 10.1293 8.7794 10.02 8.92965C9.75032 9.30025 9.62508 9.57875 9.62508 9.83317V10.2498C9.62508 10.595 9.34526 10.8748 9.00008 10.8748C8.6549 10.8748 8.37508 10.595 8.37508 10.2498V9.83317C8.37508 9.16712 8.70209 8.61631 9.00922 8.19421C9.13898 8.01587 9.28118 7.83997 9.41048 7.68003L9.48645 7.58591C9.64078 7.39411 9.77215 7.22538 9.87708 7.0623C9.98125 6.90041 10.0417 6.70814 10.0417 6.49984C10.0417 5.92454 9.57538 5.45817 9.00008 5.45817Z"
                fill="#175CD3" />
              <path
                d="M8.99357 12.3332C8.53333 12.3332 8.16024 12.7063 8.16024 13.1665C8.16024 13.6267 8.53333 13.9998 8.99357 13.9998H9.00106C9.46129 13.9998 9.83439 13.6267 9.83439 13.1665C9.83439 12.7063 9.46129 12.3332 9.00106 12.3332H8.99357Z"
                fill="#175CD3" />
              <path fill-rule="evenodd" clip-rule="evenodd"
                d="M0.041748 8.99984C0.041748 4.05229 4.05253 0.0415039 9.00008 0.0415039C13.9476 0.0415039 17.9584 4.05229 17.9584 8.99984C17.9584 13.9474 13.9476 17.9582 9.00008 17.9582C4.05253 17.9582 0.041748 13.9474 0.041748 8.99984ZM9.00008 1.2915C4.74289 1.2915 1.29175 4.74264 1.29175 8.99984C1.29175 13.257 4.74289 16.7082 9.00008 16.7082C13.2573 16.7082 16.7084 13.257 16.7084 8.99984C16.7084 4.74264 13.2573 1.2915 9.00008 1.2915Z"
                fill="#175CD3" />
            </svg>