<svg width="49" height="48" viewBox="0 0 49 48" fill="none" xmlns="http://www.w3.org/2000/svg">
<path d="M0.166656 24C0.166656 10.7452 10.9118 0 24.1667 0C37.4215 0 48.1667 10.7452 48.1667 24C48.1667 37.2548 37.4215 48 24.1667 48C10.9118 48 0.166656 37.2548 0.166656 24Z" fill="#F3FCF6"/>
<path fill-rule="evenodd" clip-rule="evenodd" d="M24.1667 14.75C19.058 14.75 14.9167 18.8914 14.9167 24C14.9167 25.1727 15.1345 26.2931 15.5316 27.3239C15.7357 27.2756 15.9484 27.25 16.1667 27.25C17.6854 27.25 18.9167 28.4812 18.9167 30C18.9167 30.8007 18.5735 31.5224 18.0284 32.0239C17.5392 32.4741 16.8843 32.75 16.1667 32.75C14.6479 32.75 13.4167 31.5188 13.4167 30C13.4167 29.2452 13.721 28.5618 14.2122 28.0655C13.6992 26.8106 13.4167 25.4375 13.4167 24C13.4167 18.0629 18.2296 13.25 24.1667 13.25C30.1037 13.25 34.9167 18.0629 34.9167 24C34.9167 29.9371 30.1037 34.75 24.1667 34.75C22.6392 34.75 21.1842 34.431 19.8664 33.8552C19.4868 33.6893 19.3136 33.2472 19.4794 32.8676C19.6452 32.4881 20.0874 32.3148 20.4669 32.4806C21.5989 32.9752 22.8497 33.25 24.1667 33.25C29.2753 33.25 33.4167 29.1086 33.4167 24C33.4167 18.8914 29.2753 14.75 24.1667 14.75ZM16.1667 28.75C15.9284 28.75 15.7078 28.8159 15.5196 28.9301C15.1565 29.1505 14.9167 29.5476 14.9167 30C14.9167 30.6904 15.4763 31.25 16.1667 31.25C16.4935 31.25 16.7895 31.1256 17.0127 30.9202C17.2621 30.6907 17.4167 30.364 17.4167 30C17.4167 29.3096 16.857 28.75 16.1667 28.75Z" fill="#067647"/>
<path fill-rule="evenodd" clip-rule="evenodd" d="M21.4167 19C21.4167 17.4812 22.6479 16.25 24.1667 16.25C25.6854 16.25 26.9167 17.4812 26.9167 19C26.9167 20.5188 25.6854 21.75 24.1667 21.75C22.6479 21.75 21.4167 20.5188 21.4167 19ZM24.1667 17.75C23.4763 17.75 22.9167 18.3096 22.9167 19C22.9167 19.6904 23.4763 20.25 24.1667 20.25C24.857 20.25 25.4167 19.6904 25.4167 19C25.4167 18.3096 24.857 17.75 24.1667 17.75Z" fill="#067647"/>
<path fill-rule="evenodd" clip-rule="evenodd" d="M20.4848 21.8757C20.6922 21.5171 20.5697 21.0583 20.2111 20.8509C19.8526 20.6435 19.3938 20.766 19.1864 21.1246C18.6967 21.9711 18.4167 22.954 18.4167 24.0001C18.4167 27.1758 20.991 29.7501 24.1667 29.7501C24.4485 29.7501 24.7259 29.7298 24.9975 29.6904C25.5002 30.3347 26.2844 30.7501 27.1667 30.7501C28.6854 30.7501 29.9167 29.5189 29.9167 28.0001C29.9167 27.3995 29.7236 26.8435 29.3972 26.3914C29.7308 25.6627 29.9167 24.8523 29.9167 24.0001C29.9167 22.954 29.6366 21.9711 29.1469 21.1246C28.9395 20.766 28.4807 20.6435 28.1222 20.8509C27.7637 21.0583 27.6411 21.5171 27.8485 21.8757C28.2097 22.5 28.4167 23.2248 28.4167 24.0001C28.4167 24.5056 28.3287 24.9895 28.1674 25.4381C27.8571 25.3168 27.5195 25.2501 27.1667 25.2501C25.6479 25.2501 24.4167 26.4813 24.4167 28.0001C24.4167 28.0817 24.4202 28.1624 24.4272 28.2423C24.3411 28.2475 24.2542 28.2501 24.1667 28.2501C21.8194 28.2501 19.9167 26.3473 19.9167 24.0001C19.9167 23.2248 20.1236 22.5 20.4848 21.8757ZM25.9167 28.0001C25.9167 27.3098 26.4763 26.7501 27.1667 26.7501C27.4858 26.7501 27.7754 26.8687 27.9967 27.0654C28.2554 27.2955 28.4167 27.6285 28.4167 28.0001C28.4167 28.6905 27.857 29.2501 27.1667 29.2501C26.6691 29.2501 26.2379 28.9594 26.0365 28.5353C25.9599 28.374 25.9167 28.1932 25.9167 28.0001Z" fill="#067647"/>
</svg>
