<svg width="160" height="128" viewBox="0 0 160 128" fill="none" xmlns="http://www.w3.org/2000/svg">
<rect width="160" height="128" fill="white"/>
<path fill-rule="evenodd" clip-rule="evenodd" d="M40.3199 85.76H98.5599C98.8894 85.76 99.2106 85.7244 99.5199 85.6569C99.8291 85.7244 100.15 85.76 100.48 85.76H133.76C136.234 85.76 138.24 83.7542 138.24 81.28C138.24 78.8057 136.234 76.8 133.76 76.8H129.92C127.446 76.8 125.44 74.7942 125.44 72.32C125.44 69.8457 127.446 67.84 129.92 67.84H142.08C144.554 67.84 146.56 65.8342 146.56 63.36C146.56 60.8857 144.554 58.88 142.08 58.88H128C130.474 58.88 132.48 56.8742 132.48 54.4C132.48 51.9257 130.474 49.92 128 49.92H87.0399C89.5141 49.92 91.5199 47.9142 91.5199 45.44C91.5199 42.9657 89.5141 40.96 87.0399 40.96H50.5599C48.0856 40.96 46.0799 42.9657 46.0799 45.44C46.0799 47.9142 48.0856 49.92 50.5599 49.92H24.9599C22.4856 49.92 20.4799 51.9257 20.4799 54.4C20.4799 56.8742 22.4856 58.88 24.9599 58.88H40.9599C43.4341 58.88 45.4399 60.8857 45.4399 63.36C45.4399 65.8342 43.4341 67.84 40.9599 67.84H15.3599C12.8856 67.84 10.8799 69.8457 10.8799 72.32C10.8799 74.7942 12.8856 76.8 15.3599 76.8H40.3199C37.8456 76.8 35.8399 78.8057 35.8399 81.28C35.8399 83.7542 37.8456 85.76 40.3199 85.76ZM144.64 85.76C147.114 85.76 149.12 83.7542 149.12 81.28C149.12 78.8057 147.114 76.8 144.64 76.8C142.166 76.8 140.16 78.8057 140.16 81.28C140.16 83.7542 142.166 85.76 144.64 85.76Z" fill="#EFFBF5"/>
<path fill-rule="evenodd" clip-rule="evenodd" d="M72.3959 71.8765C72.3459 72.2305 72.32 72.5924 72.32 72.9602C72.32 77.2018 75.7585 80.6402 80 80.6402C84.2416 80.6402 87.68 77.2018 87.68 72.9602C87.68 72.5924 87.6541 72.2305 87.6041 71.8765H106.24V88.9602C106.24 90.0206 105.38 90.8802 104.32 90.8802H55.68C54.6196 90.8802 53.76 90.0206 53.76 88.9602V71.8765H72.3959Z" fill="white"/>
<path fill-rule="evenodd" clip-rule="evenodd" d="M88.32 71.6798C88.32 76.2749 84.595 79.9998 80 79.9998C75.405 79.9998 71.68 76.2749 71.68 71.6798C71.68 71.531 71.6839 71.383 71.6916 71.2361H53.76L59.8787 53.1447C60.1425 52.3648 60.8742 51.8398 61.6975 51.8398H98.3025C99.1259 51.8398 99.8575 52.3648 100.121 53.1447L106.24 71.2361H88.3084C88.3161 71.383 88.32 71.531 88.32 71.6798Z" fill="white"/>
<path fill-rule="evenodd" clip-rule="evenodd" d="M87.1025 72.291C87.1025 75.8417 83.9226 79.3601 80 79.3601C76.0775 79.3601 72.8976 75.8417 72.8976 72.291C72.8976 72.176 72.9009 71.4216 72.9075 71.3081H59.52L64.7433 58.6084C64.9685 58.0057 65.5931 57.6001 66.2959 57.6001H93.7041C94.407 57.6001 95.0316 58.0057 95.2568 58.6084L100.48 71.3081H87.0925C87.0991 71.4216 87.1025 72.176 87.1025 72.291Z" fill="#DBF1E5"/>
<path fill-rule="evenodd" clip-rule="evenodd" d="M54.5601 71.368V88.3201C54.5601 88.9387 55.0615 89.4401 55.6801 89.4401H104.32C104.939 89.4401 105.44 88.9387 105.44 88.3201V71.368L99.3635 53.4013C99.2097 52.9463 98.7829 52.6401 98.3026 52.6401H61.6975C61.2173 52.6401 60.7904 52.9463 60.6366 53.4013L54.5601 71.368Z" stroke="#1B8354" stroke-width="2.5"/>
<path d="M62.7201 71.04C65.2395 71.04 67.9584 71.04 70.8768 71.04C72.0777 71.04 72.0777 71.8839 72.0777 72.32C72.0777 76.5616 75.5952 80 79.9344 80C84.2735 80 87.791 76.5616 87.791 72.32C87.791 71.8839 87.791 71.04 88.9919 71.04H104.96M57.9673 71.04H59.5201H57.9673Z" stroke="#1B8354" stroke-width="2.5" stroke-linecap="round" stroke-linejoin="round"/>
<path d="M96.0637 37.3138L88.96 45.2838M79.4237 34.5601V45.2838V34.5601ZM62.72 37.3138L69.8237 45.2838L62.72 37.3138Z" stroke="#0C9648" stroke-width="2.5" stroke-linecap="round" stroke-linejoin="round"/>
</svg>