<svg width="32" height="32" viewBox="0 0 32 32" fill="none" xmlns="http://www.w3.org/2000/svg">
<path d="M0.5 4C0.5 2.067 2.067 0.5 4 0.5H28C29.933 0.5 31.5 2.067 31.5 4V28C31.5 29.933 29.933 31.5 28 31.5H4C2.067 31.5 0.5 29.933 0.5 28V4Z" stroke="#D2D6DB"/>
<path fill-rule="evenodd" clip-rule="evenodd" d="M12.496 12.2966C12.496 9.35881 15.0174 7.04199 18.0453 7.04199L20.8483 7.04199C21.0647 7.04199 21.2787 7.05186 21.4724 7.09186C21.671 7.13289 21.8899 7.2139 22.0744 7.38733C22.4376 7.72877 22.4582 8.2321 22.4582 8.59292V10.4448C22.4582 10.8056 22.4376 11.3089 22.0744 11.6504C21.8899 11.8238 21.671 11.9048 21.4724 11.9458C21.2787 11.9858 21.0647 11.9957 20.8483 11.9957L18.0453 11.9957C17.8097 11.9957 17.6854 12.1662 17.6854 12.2966V13.9864L19.6942 13.9864C19.9714 13.9864 20.2361 14.0001 20.4655 14.0512C20.6946 14.1023 20.9652 14.2074 21.1612 14.4516C21.3623 14.7023 21.4007 14.9935 21.389 15.2339C21.3776 15.4681 21.3159 15.7209 21.2391 15.9735L20.8171 17.3624C20.7302 17.6481 20.6004 18.0051 20.2752 18.2357C19.9595 18.4596 19.5794 18.4772 19.2721 18.4772H17.6854V23.4077C17.6854 23.7686 17.6648 24.2719 17.3017 24.6133C17.1172 24.7867 16.8983 24.8678 16.6996 24.9088C16.506 24.9488 16.2919 24.9587 16.0756 24.9587H14.1059C13.8896 24.9587 13.6755 24.9488 13.4819 24.9088C13.2832 24.8678 13.0643 24.7867 12.8798 24.6133C12.5166 24.2719 12.496 23.7686 12.496 23.4077V18.4772H11.1514C10.935 18.4772 10.721 18.4673 10.5273 18.4273C10.3286 18.3863 10.1097 18.3053 9.92527 18.1318C9.5621 17.7904 9.5415 17.2871 9.5415 16.9263V15.5374C9.5415 15.1765 9.5621 14.6732 9.92527 14.3318C10.1097 14.1583 10.3286 14.0773 10.5273 14.0363C10.721 13.9963 10.935 13.9864 11.1514 13.9864H12.496V12.2966ZM18.0453 8.29199C15.634 8.29199 13.746 10.1207 13.746 12.2966L13.746 14.6114C13.746 14.9566 13.4662 15.2364 13.121 15.2364H11.1514C10.9831 15.2364 10.8756 15.2443 10.8063 15.2557C10.7978 15.313 10.7915 15.4015 10.7915 15.5374V16.9263C10.7915 17.0622 10.7978 17.1506 10.8063 17.208C10.8756 17.2193 10.9831 17.2272 11.1514 17.2272H13.121C13.4662 17.2272 13.746 17.507 13.746 17.8522V23.4077C13.746 23.5436 13.7524 23.6321 13.7608 23.6894C13.8301 23.7008 13.9376 23.7087 14.1059 23.7087H16.0756C16.2438 23.7087 16.3514 23.7008 16.4207 23.6894C16.4291 23.6321 16.4354 23.5436 16.4354 23.4077V17.8522C16.4354 17.507 16.7153 17.2272 17.0604 17.2272H19.2721C19.4133 17.2272 19.4946 17.2202 19.5433 17.2112C19.5615 17.1748 19.587 17.1111 19.6211 16.9989L20.0432 15.61C20.091 15.4525 20.1176 15.3397 20.1306 15.2598C20.0354 15.2456 19.8961 15.2364 19.6942 15.2364H17.0604C16.7153 15.2364 16.4354 14.9566 16.4354 14.6114V12.2966C16.4354 11.4043 17.1931 10.7457 18.0453 10.7457L20.8483 10.7457C21.0166 10.7457 21.1241 10.7379 21.1934 10.7265C21.2018 10.6691 21.2082 10.5807 21.2082 10.4448V8.59292C21.2082 8.45702 21.2018 8.36855 21.1934 8.31121C21.1241 8.29983 21.0166 8.29199 20.8483 8.29199L18.0453 8.29199Z" fill="#161616"/>
</svg>
