<svg width="40" height="40" viewBox="0 0 40 40" fill="none" xmlns="http://www.w3.org/2000/svg">
<path d="M0 20C0 8.95431 8.95431 0 20 0C31.0457 0 40 8.95431 40 20C40 31.0457 31.0457 40 20 40C8.95431 40 0 31.0457 0 20Z" fill="#F9FAFB"/>
<path d="M20 16.4582C19.4247 16.4582 18.9583 16.9245 18.9583 17.4998C18.9583 17.845 18.6785 18.1248 18.3333 18.1248C17.9881 18.1248 17.7083 17.845 17.7083 17.4998C17.7083 16.2342 18.7343 15.2082 20 15.2082C21.2656 15.2082 22.2916 16.2342 22.2916 17.4998C22.2916 17.9551 22.1582 18.3811 21.9281 18.7387C21.784 18.9626 21.6156 19.1765 21.4602 19.3695L21.3764 19.4734C21.2475 19.6329 21.1292 19.7794 21.0199 19.9296C20.7502 20.3003 20.625 20.5788 20.625 20.8332V21.2498C20.625 21.595 20.3451 21.8748 20 21.8748C19.6548 21.8748 19.375 21.595 19.375 21.2498V20.8332C19.375 20.1671 19.702 19.6163 20.0091 19.1942C20.1389 19.0159 20.2811 18.84 20.4104 18.68L20.4863 18.5859C20.6407 18.3941 20.772 18.2254 20.877 18.0623C20.9811 17.9004 21.0416 17.7081 21.0416 17.4998C21.0416 16.9245 20.5753 16.4582 20 16.4582Z" fill="#161616"/>
<path d="M19.9934 23.3332C19.5332 23.3332 19.1601 23.7063 19.1601 24.1665C19.1601 24.6267 19.5332 24.9998 19.9934 24.9998H20.0009C20.4612 24.9998 20.8343 24.6267 20.8343 24.1665C20.8343 23.7063 20.4612 23.3332 20.0009 23.3332H19.9934Z" fill="#161616"/>
<path fill-rule="evenodd" clip-rule="evenodd" d="M11.0416 19.9998C11.0416 15.0523 15.0524 11.0415 20 11.0415C24.9475 11.0415 28.9583 15.0523 28.9583 19.9998C28.9583 24.9474 24.9475 28.9582 20 28.9582C15.0524 28.9582 11.0416 24.9474 11.0416 19.9998ZM20 12.2915C15.7428 12.2915 12.2916 15.7426 12.2916 19.9998C12.2916 24.257 15.7428 27.7082 20 27.7082C24.2572 27.7082 27.7083 24.257 27.7083 19.9998C27.7083 15.7426 24.2572 12.2915 20 12.2915Z" fill="#161616"/>
</svg>
