<svg width="32" height="32" viewBox="0 0 32 32" fill="none" xmlns="http://www.w3.org/2000/svg">
<path d="M0.5 4C0.5 2.067 2.067 0.5 4 0.5H28C29.933 0.5 31.5 2.067 31.5 4V28C31.5 29.933 29.933 31.5 28 31.5H4C2.067 31.5 0.5 29.933 0.5 28V4Z" stroke="#D2D6DB"/>
<path d="M7.32664 14.6282C7.43248 14.7316 7.64497 14.9341 8.60164 14.9341C8.94497 14.9341 9.38497 14.9074 9.94997 14.8415C10.2933 14.8015 10.5383 14.4916 10.4983 14.1483C10.4583 13.8049 10.1483 13.5583 9.80498 13.5999C9.59664 13.6249 9.38247 13.644 9.17747 13.6574L10.6766 12.1732C10.9216 11.9299 10.9233 11.5341 10.6808 11.2891C10.4375 11.0441 10.0416 11.0424 9.79664 11.2849L8.33247 12.734C8.3458 12.5574 8.36247 12.3749 8.38247 12.1974C8.4208 11.8541 8.1733 11.5457 7.82997 11.5074C7.48664 11.4716 7.17831 11.7166 7.13998 12.0599C6.90248 14.2082 7.15497 14.4607 7.32331 14.6249L7.32664 14.6282Z" fill="#161616"/>
<path d="M11.31 10.6857C11.4325 10.809 11.5933 10.8708 11.7541 10.8708L11.7533 10.8699C11.9125 10.8699 12.0716 10.8099 12.1933 10.689L13.6583 9.23908C13.645 9.41825 13.6283 9.60325 13.6083 9.78409C13.57 10.1274 13.8175 10.4357 14.1608 10.474C14.5041 10.5107 14.8133 10.2649 14.8508 9.92154C15.0866 7.78487 14.8416 7.52654 14.6775 7.35904L14.6708 7.35236L14.665 7.34659L14.6641 7.34569C14.52 7.20569 14.1783 6.88321 12.0416 7.13321C11.6983 7.17321 11.4533 7.48323 11.4933 7.82657C11.5333 8.1699 11.8441 8.41491 12.1866 8.37491C12.395 8.35074 12.6091 8.33152 12.8141 8.31818L11.315 9.80158C11.0691 10.0449 11.0675 10.4407 11.31 10.6857Z" fill="#161616"/>
<path fill-rule="evenodd" clip-rule="evenodd" d="M18.1519 24.9624H19.0269V24.9607C20.1144 24.9607 20.6619 24.9607 21.1985 24.8032C22.0794 24.5557 22.8502 23.9999 23.3669 23.2424C23.6835 22.7849 23.8569 22.264 24.2019 21.2257L24.2927 20.9549L24.2941 20.9506C24.7506 19.5844 24.9594 18.9597 24.9594 18.0532C24.9594 16.734 24.296 15.6407 23.0444 14.8932C22.3621 14.4825 21.465 14.3475 19.8435 14.1035L19.8419 14.1032L19.0994 13.984L19.946 10.389C20.091 9.77404 19.9502 9.13737 19.5585 8.64237C19.166 8.14571 18.5769 7.86153 17.9427 7.86153C17.0069 7.86153 16.1885 8.49238 15.951 9.39571L13.981 16.9532L12.9619 16.0791C12.5285 15.7082 11.9777 15.534 11.411 15.5874C10.8485 15.6407 10.3435 15.9132 9.99103 16.3549C9.37686 17.1232 9.38103 18.1957 10.001 18.964L12.801 22.414C13.7152 23.5415 14.176 24.1098 14.8644 24.4773C14.9927 24.549 15.1185 24.6074 15.226 24.6565C15.2335 24.6599 15.2402 24.6624 15.2477 24.6657C15.9709 24.9624 16.7006 24.9624 18.1519 24.9624ZM18.1513 23.7124C16.8725 23.7124 16.2268 23.7124 15.7319 23.5132V23.5149C15.6294 23.4682 15.546 23.4282 15.4694 23.3857C15.4673 23.3845 15.4652 23.3834 15.4631 23.3824C15.461 23.3813 15.4589 23.3803 15.4569 23.379C14.9887 23.1308 14.5822 22.6294 13.772 21.6302L13.771 21.629L10.9719 18.1807C10.7235 17.8732 10.7219 17.4449 10.9669 17.1382C11.106 16.9632 11.306 16.8549 11.5285 16.834C11.7544 16.8132 11.9744 16.8824 12.1477 17.0307L13.926 18.5557C14.0894 18.6957 14.3135 18.7415 14.5194 18.6774C14.7252 18.6124 14.8835 18.4465 14.9377 18.2382L17.1602 9.71399C17.2535 9.35982 17.5752 9.11316 17.9427 9.11316C18.1919 9.11316 18.4235 9.22488 18.5777 9.41988C18.731 9.61405 18.786 9.86238 18.7294 10.104L17.7285 14.354C17.6885 14.5224 17.721 14.7007 17.8177 14.8448C17.9144 14.989 18.0669 15.0866 18.2385 15.1141L19.651 15.3399C21.2319 15.5774 21.9494 15.694 22.4019 15.9665C23.2827 16.4923 23.7102 17.1757 23.7102 18.0549C23.7102 18.7589 23.5461 19.2496 23.108 20.5598L23.1077 20.5607L23.0157 20.8366C22.709 21.7593 22.5549 22.2227 22.3377 22.5357C21.9827 23.0557 21.4577 23.434 20.8577 23.6023C20.857 23.6026 20.8562 23.6029 20.8554 23.6032C20.8534 23.604 20.8512 23.6049 20.8494 23.6049C20.4844 23.7124 19.9969 23.7124 19.0269 23.7124H18.1513Z" fill="#161616"/>
</svg>
