<svg width="48" height="48" viewBox="0 0 48 48" fill="none" xmlns="http://www.w3.org/2000/svg">
<path d="M0 24C0 10.7452 10.7452 0 24 0C37.2548 0 48 10.7452 48 24C48 37.2548 37.2548 48 24 48C10.7452 48 0 37.2548 0 24Z" fill="#F3FCF6"/>
<path d="M30.5 28.7341H28C27.586 28.7341 27.25 28.3981 27.25 27.9841C27.25 27.5701 27.586 27.2341 28 27.2341H30.5C30.914 27.2341 31.25 27.5701 31.25 27.9841C31.25 28.3981 30.914 28.7341 30.5 28.7341Z" fill="#067647"/>
<path d="M25 28.7341H22.5C22.086 28.7341 21.75 28.3981 21.75 27.9841C21.75 27.5701 22.086 27.2341 22.5 27.2341H25C25.414 27.2341 25.75 27.5701 25.75 27.9841C25.75 28.3981 25.414 28.7341 25 28.7341Z" fill="#067647"/>
<path d="M30.5 24.7341H28C27.586 24.7341 27.25 24.3981 27.25 23.9841C27.25 23.5701 27.586 23.2341 28 23.2341H30.5C30.914 23.2341 31.25 23.5701 31.25 23.9841C31.25 24.3981 30.914 24.7341 30.5 24.7341Z" fill="#067647"/>
<path d="M25 24.7341H22.5C22.086 24.7341 21.75 24.3981 21.75 23.9841C21.75 23.5701 22.086 23.2341 22.5 23.2341H25C25.414 23.2341 25.75 23.5701 25.75 23.9841C25.75 24.3981 25.414 24.7341 25 24.7341Z" fill="#067647"/>
<path d="M30.5 20.7341H22.5C22.086 20.7341 21.75 20.3981 21.75 19.9841C21.75 19.5701 22.086 19.2341 22.5 19.2341H30.5C30.914 19.2341 31.25 19.5701 31.25 19.9841C31.25 20.3981 30.914 20.7341 30.5 20.7341Z" fill="#067647"/>
<path fill-rule="evenodd" clip-rule="evenodd" d="M16.5 33.2341H28C30.934 33.2341 32.55 33.2341 33.65 32.1341C34.75 31.0351 34.75 29.4181 34.75 26.4841V21.4841C34.75 18.5501 34.75 16.9331 33.65 15.8341C32.551 14.7341 30.934 14.7341 28 14.7341H23C22.012 14.7341 21.5161 14.7342 21.0341 14.8572L21.0316 14.8581C21.0291 14.859 21.0263 14.8601 21.024 14.8601C19.74 15.2091 18.7261 16.2232 18.3771 17.5072L18.3757 17.5113C18.3748 17.5135 18.374 17.5156 18.374 17.5181C18.2861 17.859 18.2605 18.208 18.2531 18.7341H18C15.977 18.7341 14.8601 18.7342 14.0601 19.5442C13.2501 20.3442 13.25 21.4601 13.25 23.4841V29.9841C13.25 31.7761 14.708 33.2341 16.5 33.2341ZM16.5 31.7341C17.465 31.7341 18.25 30.9491 18.25 29.9841V20.2341H18C16.256 20.2341 15.47 20.2491 15.125 20.6001L15.116 20.6091C14.765 20.9541 14.75 21.7401 14.75 23.4841V29.9841C14.75 30.9491 15.535 31.7341 16.5 31.7341ZM19.7478 30.1044C19.726 30.7029 19.5418 31.2607 19.2381 31.7341H28C30.6157 31.7341 31.9291 31.7341 32.59 31.0742C33.25 30.4142 33.25 29.1013 33.25 26.4846V21.4841C33.25 18.8684 33.25 17.5551 32.59 16.8942C31.93 16.2342 30.616 16.2341 28 16.2341H23C22.142 16.2341 21.709 16.2341 21.411 16.3091C20.643 16.5201 20.036 17.1272 19.825 17.8952C19.75 18.1932 19.75 18.6261 19.75 19.4841V29.9841C19.75 30.0244 19.7493 30.0645 19.7478 30.1044Z" fill="#067647"/>
</svg>
