<svg width="49" height="48" viewBox="0 0 49 48" fill="none" xmlns="http://www.w3.org/2000/svg">
<path d="M0.5 24C0.5 10.7452 11.2452 0 24.5 0C37.7548 0 48.5 10.7452 48.5 24C48.5 37.2548 37.7548 48 24.5 48C11.2452 48 0.5 37.2548 0.5 24Z" fill="#F3FCF6"/>
<path fill-rule="evenodd" clip-rule="evenodd" d="M21.0002 18.75C19.4814 18.75 18.2502 19.9812 18.2502 21.5C18.2502 23.0188 19.4814 24.25 21.0002 24.25C22.519 24.25 23.7502 23.0188 23.7502 21.5C23.7502 19.9812 22.519 18.75 21.0002 18.75ZM19.7502 21.5C19.7502 20.8096 20.3098 20.25 21.0002 20.25C21.6905 20.25 22.2502 20.8096 22.2502 21.5C22.2502 22.1904 21.6905 22.75 21.0002 22.75C20.3098 22.75 19.7502 22.1904 19.7502 21.5Z" fill="#067647"/>
<path d="M18.1794 28.818C18.6279 27.8599 19.7406 27.2687 20.9814 27.2504C22.2131 27.2322 23.3358 27.7818 23.8209 28.818C23.9965 29.1931 24.443 29.3549 24.8182 29.1793C25.1933 29.0036 25.355 28.5572 25.1794 28.182C24.3767 26.4673 22.6036 25.7263 20.9593 25.7506C19.3241 25.7747 17.5807 26.559 16.8209 28.182C16.6453 28.5572 16.8071 29.0036 17.1822 29.1793C17.5573 29.3549 18.0038 29.1931 18.1794 28.818Z" fill="#067647"/>
<path d="M26.75 22C26.75 21.5858 27.0858 21.25 27.5 21.25H31.5C31.9142 21.25 32.25 21.5858 32.25 22C32.25 22.4142 31.9142 22.75 31.5 22.75H27.5C27.0858 22.75 26.75 22.4142 26.75 22Z" fill="#067647"/>
<path d="M27.5 25.25C27.0858 25.25 26.75 25.5858 26.75 26C26.75 26.4142 27.0858 26.75 27.5 26.75H31.5C31.9142 26.75 32.25 26.4142 32.25 26C32.25 25.5858 31.9142 25.25 31.5 25.25H27.5Z" fill="#067647"/>
<path fill-rule="evenodd" clip-rule="evenodd" d="M24.5522 14.25H24.4478C22.135 14.25 20.3301 14.25 18.9235 14.4202C17.4922 14.5934 16.3594 14.9536 15.4627 15.7605C14.5548 16.5777 14.1391 17.6275 13.9413 18.9515C13.75 20.2322 13.75 21.8692 13.75 23.9375V24.0625C13.75 26.1308 13.75 27.7678 13.9413 29.0485C14.1391 30.3725 14.5548 31.4223 15.4627 32.2395C16.3594 33.0464 17.4922 33.4066 18.9235 33.5798C20.3301 33.75 22.135 33.75 24.4478 33.75H24.5522C26.865 33.75 28.6699 33.75 30.0765 33.5798C31.5078 33.4066 32.6406 33.0464 33.5373 32.2395C34.4452 31.4223 34.8609 30.3725 35.0587 29.0485C35.25 27.7678 35.25 26.1308 35.25 24.0625V23.9375C35.25 21.8692 35.25 20.2322 35.0587 18.9515C34.8609 17.6275 34.4452 16.5777 33.5373 15.7605C32.6406 14.9536 31.5078 14.5934 30.0765 14.4202C28.6699 14.25 26.865 14.25 24.5522 14.25ZM16.4662 16.8755C17.034 16.3644 17.8119 16.0656 19.1037 15.9093C20.4097 15.7513 22.1238 15.75 24.5 15.75C26.8762 15.75 28.5903 15.7513 29.8963 15.9093C31.1881 16.0656 31.966 16.3644 32.5338 16.8755C33.0903 17.3764 33.4068 18.0463 33.5752 19.1731C33.748 20.3303 33.75 21.8552 33.75 24C33.75 26.1448 33.748 27.6697 33.5752 28.8269C33.4068 29.9537 33.0903 30.6236 32.5338 31.1245C31.966 31.6356 31.1881 31.9344 29.8963 32.0907C28.5903 32.2487 26.8762 32.25 24.5 32.25C22.1238 32.25 20.4097 32.2487 19.1037 32.0907C17.8119 31.9344 17.034 31.6356 16.4662 31.1245C15.9097 30.6236 15.5932 29.9537 15.4248 28.8269C15.252 27.6697 15.25 26.1448 15.25 24C15.25 21.8552 15.252 20.3303 15.4248 19.1731C15.5932 18.0463 15.9097 17.3764 16.4662 16.8755Z" fill="#067647"/>
</svg>
