<svg width="49" height="48" viewBox="0 0 49 48" fill="none" xmlns="http://www.w3.org/2000/svg">
<path d="M0.833328 24C0.833328 10.7452 11.5785 0 24.8333 0C38.0882 0 48.8333 10.7452 48.8333 24C48.8333 37.2548 38.0882 48 24.8333 48C11.5785 48 0.833328 37.2548 0.833328 24Z" fill="#F3FCF6"/>
<path d="M23.0833 31C23.0833 30.5858 23.4191 30.25 23.8333 30.25H25.8333C26.2475 30.25 26.5833 30.5858 26.5833 31C26.5833 31.4142 26.2475 31.75 25.8333 31.75H23.8333C23.4191 31.75 23.0833 31.4142 23.0833 31Z" fill="#067647"/>
<path fill-rule="evenodd" clip-rule="evenodd" d="M24.7776 13.25H24.8891C26.4917 13.25 27.7706 13.25 28.7737 13.3848C29.81 13.5242 30.6634 13.8197 31.3385 14.4948C32.0137 15.1699 32.3092 16.0233 32.4485 17.0596C32.5834 18.0627 32.5833 19.3417 32.5833 20.9443V27.0557C32.5833 28.6583 32.5834 29.9373 32.4485 30.9404C32.3092 31.9767 32.0137 32.8301 31.3385 33.5052C30.6634 34.1803 29.81 34.4759 28.7737 34.6152C27.7706 34.75 26.4917 34.75 24.8891 34.75H24.7776C23.175 34.75 21.896 34.75 20.8929 34.6152C19.8567 34.4759 19.0033 34.1803 18.3281 33.5052C17.653 32.8301 17.3575 31.9767 17.2182 30.9404C17.0833 29.9373 17.0833 28.6583 17.0833 27.0558V20.9443C17.0833 19.3417 17.0833 18.0627 17.2182 17.0596C17.3575 16.0233 17.653 15.1699 18.3281 14.4948C19.0033 13.8197 19.8567 13.5242 20.8929 13.3848C21.896 13.25 23.175 13.25 24.7776 13.25ZM21.0928 14.8715C20.2229 14.9884 19.7388 15.2055 19.3888 15.5555C19.0388 15.9054 18.8217 16.3896 18.7048 17.2595C18.5849 18.151 18.5833 19.3289 18.5833 21V27C18.5833 28.6711 18.5849 29.849 18.7048 30.7405C18.8217 31.6105 19.0388 32.0946 19.3888 32.4445C19.7388 32.7945 20.2229 33.0116 21.0928 33.1285C21.9843 33.2484 23.1622 33.25 24.8333 33.25C26.5044 33.25 27.6823 33.2484 28.5738 33.1285C29.4438 33.0116 29.9279 32.7945 30.2779 32.4445C30.6279 32.0946 30.8449 31.6105 30.9619 30.7405C31.0817 29.849 31.0833 28.6711 31.0833 27V21C31.0833 19.3289 31.0817 18.151 30.9619 17.2595C30.8449 16.3896 30.6279 15.9054 30.2779 15.5555C29.9279 15.2055 29.4438 14.9884 28.5738 14.8715C28.5335 14.866 28.4926 14.8608 28.451 14.8559C28.3711 15.333 28.2973 15.7507 28.1974 16.0912C28.0783 16.497 27.8997 16.8781 27.5559 17.1831C27.2004 17.4985 26.7908 17.6311 26.3522 17.6917C25.9386 17.7489 25.4282 17.75 24.8334 17.75C24.2386 17.75 23.7282 17.7489 23.3146 17.6917C22.8759 17.6311 22.4664 17.4985 22.1108 17.1831C21.767 16.8781 21.5884 16.497 21.4693 16.0912C21.3694 15.7507 21.2956 15.333 21.2157 14.8559C21.1741 14.8608 21.1332 14.866 21.0928 14.8715ZM22.7216 14.7645C22.7901 15.1658 22.844 15.4487 22.9086 15.6688C22.9852 15.9296 23.0532 16.0139 23.1063 16.061C23.1647 16.1129 23.2557 16.1693 23.52 16.2058C23.8093 16.2458 24.2043 16.25 24.8334 16.25C25.4624 16.25 25.8574 16.2458 26.1468 16.2058C26.4111 16.1693 26.502 16.1129 26.5604 16.061C26.6135 16.0139 26.6816 15.9296 26.7581 15.6688C26.8227 15.4487 26.8766 15.1658 26.9451 14.7645C26.342 14.7504 25.646 14.75 24.8333 14.75C24.0207 14.75 23.3248 14.7504 22.7216 14.7645Z" fill="#067647"/>
</svg>
