<svg width="32" height="32" viewBox="0 0 32 32" fill="none" xmlns="http://www.w3.org/2000/svg">
<path d="M0.5 4C0.5 2.067 2.067 0.5 4 0.5H28C29.933 0.5 31.5 2.067 31.5 4V28C31.5 29.933 29.933 31.5 28 31.5H4C2.067 31.5 0.5 29.933 0.5 28V4Z" stroke="#D2D6DB"/>
<path fill-rule="evenodd" clip-rule="evenodd" d="M10.8546 12.1874C10.8546 9.34565 13.1582 7.04199 16 7.04199C18.8417 7.04199 21.1453 9.34565 21.1453 12.1874C21.1453 13.6154 21.1747 14.7123 21.3522 15.605C21.6241 14.7572 22.2608 13.9163 23.0885 13.0647C23.3291 12.8172 23.7248 12.8116 23.9723 13.0522C24.2198 13.2927 24.2255 13.6884 23.9849 13.9359C22.7951 15.16 22.3988 15.9966 22.4655 16.6218C22.5294 17.2215 23.0608 17.9288 24.6323 18.7848C24.8985 18.9298 25.0172 19.2402 24.9303 19.519C24.9536 19.5942 24.963 19.6745 24.9561 19.7563C24.9337 20.0228 24.7443 20.2455 24.4849 20.3104C23.571 20.5388 23.1408 20.7387 22.8655 21.014C22.5902 21.2893 22.3903 21.7195 22.1618 22.6334C22.0923 22.9116 21.8423 23.1068 21.5555 23.1068C20.0843 23.1068 19.2714 23.5173 18.5845 23.94C18.4935 23.996 18.4011 24.0552 18.3065 24.116C17.6962 24.5075 16.993 24.9587 16 24.9587C15.0069 24.9587 14.3038 24.5076 13.6935 24.116C13.5989 24.0553 13.5063 23.996 13.4154 23.94C12.7285 23.5173 11.9156 23.1068 10.4444 23.1068C10.1576 23.1068 9.90761 22.9116 9.83806 22.6334C9.60958 21.7195 9.40972 21.2893 9.1344 21.014C8.85908 20.7387 8.42895 20.5388 7.51503 20.3104C7.25561 20.2455 7.06619 20.0228 7.04381 19.7563C7.03694 19.6745 7.04628 19.5942 7.06961 19.519C6.98274 19.2402 7.10144 18.9298 7.36764 18.7848C8.93908 17.9288 9.4705 17.2215 9.53444 16.6218C9.60108 15.9966 9.20478 15.16 8.01503 13.9359C7.77444 13.6884 7.78006 13.2927 8.02757 13.0522C8.27509 12.8116 8.67078 12.8172 8.91137 13.0647C9.73911 13.9163 10.3758 14.7572 10.6477 15.6049C10.8252 14.7123 10.8546 13.6154 10.8546 12.1874ZM16 8.29199C13.8486 8.29199 12.1046 10.036 12.1046 12.1874C12.1046 14.1404 12.0638 15.7556 11.5048 17.0792C11.0739 18.0993 10.359 18.9025 9.2515 19.5872C9.54111 19.7329 9.79627 19.9081 10.0183 20.1301C10.4623 20.5741 10.719 21.1507 10.9275 21.8702C12.4086 21.9542 13.3302 22.4199 14.0706 22.8754C14.1883 22.9479 14.2974 23.0166 14.3998 23.0812C15.0173 23.4703 15.3955 23.7087 16 23.7087C16.6044 23.7087 16.9825 23.4704 17.5999 23.0813C17.7024 23.0167 17.8116 22.9479 17.9293 22.8754C18.6697 22.4199 19.5913 21.9542 21.0724 21.8702C21.2809 21.1507 21.5377 20.5741 21.9816 20.1301C22.2036 19.9081 22.4588 19.7329 22.7484 19.5872C21.6409 18.9025 20.926 18.0993 20.4952 17.0792C19.9361 15.7556 19.8953 14.1404 19.8953 12.1874C19.8953 10.036 18.1513 8.29199 16 8.29199Z" fill="#161616"/>
</svg>
