<svg width="49" height="48" viewBox="0 0 49 48" fill="none" xmlns="http://www.w3.org/2000/svg">
<path d="M0.5 24C0.5 10.7452 11.2452 0 24.5 0C37.7548 0 48.5 10.7452 48.5 24C48.5 37.2548 37.7548 48 24.5 48C11.2452 48 0.5 37.2548 0.5 24Z" fill="#F3FCF6"/>
<path fill-rule="evenodd" clip-rule="evenodd" d="M24.5 14.75C20.3987 14.75 17.25 17.6392 17.25 21V21.2657C17.3794 21.2489 17.5171 21.245 17.6636 21.2568C18.0213 21.2858 18.3628 21.442 18.7257 21.6081L18.8098 21.6465L18.8752 21.6762C19.1479 21.7999 19.415 21.921 19.6281 22.1063C20.2509 22.648 20.2504 23.363 20.25 23.7764V28.224C20.2504 28.6374 20.2509 29.3524 19.6281 29.8941C19.4152 30.0792 19.1483 30.2003 18.8759 30.3239L18.8098 30.3538L18.7257 30.3923C18.3631 30.5582 18.0211 30.7146 17.6636 30.7436C16.6186 30.8281 16.0332 30.1152 15.6893 29.6964L15.6612 29.6623C15.574 29.5564 15.4667 29.432 15.3508 29.2977C15.1389 29.0522 14.8984 28.7735 14.7001 28.5139C14.3724 28.0851 14.0441 27.5713 13.881 26.9743C13.7063 26.335 13.7063 25.6654 13.881 25.0261C13.9993 24.5929 14.2135 24.2106 14.4961 23.8093C14.7696 23.421 15.1381 22.9735 15.5937 22.4201L15.6131 22.3965C15.6317 22.374 15.6511 22.3501 15.6714 22.3251C15.6961 22.2947 15.7226 22.2621 15.75 22.2289V21C15.75 16.6288 19.7647 13.25 24.5 13.25C29.2353 13.25 33.25 16.6288 33.25 21V22.2238C33.2704 22.2496 33.29 22.2744 33.3079 22.2971L33.3105 22.3004C33.3431 22.3417 33.3705 22.3764 33.3869 22.3963L33.4054 22.4188C33.8614 22.9726 34.2301 23.4205 34.5039 23.8091C34.7865 24.2104 35.0007 24.5927 35.119 25.0259C35.2936 25.6652 35.2936 26.3348 35.119 26.9741C34.9559 27.5711 34.6276 28.0849 34.2999 28.5137C34.1016 28.7733 33.8611 29.052 33.6492 29.2975C33.5333 29.4318 33.426 29.5562 33.3388 29.6621L33.2811 29.7323C33.2692 29.7469 33.2572 29.7614 33.2453 29.776C33.2068 30.8868 32.9331 31.7996 32.4294 32.5281C31.8839 33.3171 31.1175 33.8194 30.2633 34.1397C28.6351 34.7503 26.5224 34.7502 24.5943 34.75H24.5C24.0858 34.75 23.75 34.4142 23.75 34C23.75 33.5858 24.0858 33.25 24.5 33.25C26.5467 33.25 28.3915 33.2397 29.7367 32.7352C30.3825 32.4931 30.8661 32.1516 31.1956 31.675C31.367 31.4271 31.5098 31.1236 31.6076 30.7472C31.5174 30.7519 31.4268 30.7507 31.3364 30.7434C30.9791 30.7144 30.6379 30.5584 30.2753 30.3926L30.1902 30.3536L30.125 30.3243C29.7688 30.1652 29.0973 29.8652 28.8415 29.1081C28.7485 28.8327 28.7492 28.5384 28.7499 28.2645L28.75 28.1955V23.8044L28.7499 23.7355C28.7492 23.4616 28.7485 23.1672 28.8415 22.8919C29.0973 22.1348 29.7688 21.8348 30.125 21.6757C30.1481 21.6653 30.1699 21.6556 30.1902 21.6463L30.2742 21.6079C30.6371 21.4419 30.9787 21.2856 31.3364 21.2566C31.4745 21.2455 31.6132 21.2484 31.75 21.2653V21C31.75 17.6392 28.6013 14.75 24.5 14.75ZM31.8824 22.9256C31.8213 22.8611 31.7794 22.8293 31.7509 22.8133C31.6684 22.767 31.5648 22.7431 31.4573 22.7518C31.3977 22.7566 31.3152 22.7822 30.812 23.0114C30.5922 23.1115 30.4688 23.1691 30.3737 23.2381C30.3011 23.2907 30.2777 23.3275 30.2628 23.3713C30.2616 23.3766 30.2579 23.3963 30.2551 23.4425C30.2503 23.5198 30.25 23.6227 30.25 23.8044V28.1955C30.25 28.3773 30.2503 28.4802 30.2551 28.5575C30.2579 28.6037 30.2616 28.6234 30.2628 28.6287C30.2777 28.6725 30.3011 28.7093 30.3737 28.7619C30.4688 28.8309 30.5922 28.8885 30.812 28.9886C31.3152 29.2178 31.3977 29.2434 31.4573 29.2482C31.5648 29.2569 31.6684 29.233 31.7509 29.1867C31.7888 29.1654 31.8398 29.1228 32.1808 28.7087C32.3165 28.5437 32.4432 28.3976 32.5654 28.2568L32.5733 28.2477C32.7561 28.0368 32.9292 27.8371 33.1081 27.603C33.3882 27.2364 33.5834 26.9033 33.672 26.5788C33.776 26.1983 33.776 25.8017 33.672 25.4212C33.6178 25.2226 33.5098 25.0026 33.2776 24.673C33.0402 24.3359 32.7077 23.9313 32.2289 23.3497C32.1603 23.2665 32.1154 23.2086 32.0762 23.158C32.0478 23.1214 32.0224 23.0886 31.9932 23.0528C31.9517 23.0147 31.9145 22.9721 31.8824 22.9256ZM17.241 22.8438C17.1074 22.9438 16.982 23.0938 16.7711 23.3499C16.2923 23.9315 15.9598 24.3361 15.7224 24.6732C15.4902 25.0028 15.3822 25.2228 15.328 25.4214C15.224 25.8019 15.224 26.1985 15.328 26.579C15.4166 26.9035 15.6118 27.2366 15.8919 27.6032C16.0717 27.8384 16.2456 28.039 16.4295 28.251L16.4303 28.252C16.5538 28.3943 16.6819 28.5421 16.8192 28.7089C17.0142 28.9457 17.1358 29.0821 17.2566 29.168C17.346 29.2316 17.4215 29.2582 17.5427 29.2484C17.6023 29.2436 17.6848 29.218 18.188 28.9888C18.5716 28.8141 18.6179 28.7847 18.6437 28.7622C18.6885 28.7233 18.7068 28.6911 18.7218 28.6306C18.7438 28.5413 18.75 28.4228 18.75 28.1957V23.8046C18.75 23.5776 18.7438 23.459 18.7218 23.3698C18.7068 23.3093 18.6885 23.2771 18.6437 23.2382C18.6179 23.2156 18.5716 23.1863 18.188 23.0116C17.6848 22.7824 17.6023 22.7568 17.5427 22.7519C17.4188 22.7419 17.3397 22.77 17.241 22.8438Z" fill="#067647"/>
</svg>
