<svg width="32" height="32" viewBox="0 0 32 32" fill="none" xmlns="http://www.w3.org/2000/svg">
<path d="M0.5 4C0.5 2.067 2.067 0.5 4 0.5H28C29.933 0.5 31.5 2.067 31.5 4V28C31.5 29.933 29.933 31.5 28 31.5H4C2.067 31.5 0.5 29.933 0.5 28V4Z" stroke="#D2D6DB"/>
<path fill-rule="evenodd" clip-rule="evenodd" d="M15.9998 19.1248C14.2739 19.1248 12.8748 17.7257 12.8748 15.9998C12.8748 14.2739 14.2739 12.8748 15.9998 12.8748C17.7257 12.8748 19.1248 14.2739 19.1248 15.9998C19.1248 17.7257 17.7257 19.1248 15.9998 19.1248ZM14.1248 15.9998C14.1248 17.0354 14.9643 17.8748 15.9998 17.8748C17.0354 17.8748 17.8748 17.0354 17.8748 15.9998C17.8748 14.9643 17.0354 14.1248 15.9998 14.1248C14.9643 14.1248 14.1248 14.9643 14.1248 15.9998Z" fill="#161616"/>
<path fill-rule="evenodd" clip-rule="evenodd" d="M15.9998 9.5415C13.8577 9.5415 12.0215 10.4843 10.6001 11.594C9.17745 12.7046 8.12589 14.0163 7.53768 14.8411L7.49333 14.9029C7.28237 15.1963 7.0415 15.5313 7.0415 15.9998C7.0415 16.4683 7.28237 16.8033 7.49333 17.0967L7.53768 17.1586C8.12589 17.9834 9.17745 19.295 10.6001 20.4057C12.0215 21.5153 13.8577 22.4582 15.9998 22.4582C18.142 22.4582 19.9782 21.5153 21.3996 20.4057C22.8222 19.295 23.8738 17.9834 24.462 17.1586L24.5063 17.0967C24.7173 16.8033 24.9582 16.4683 24.9582 15.9998C24.9582 15.5313 24.7173 15.1963 24.5063 14.9029L24.462 14.8411C23.8738 14.0163 22.8222 12.7046 21.3996 11.594C19.9782 10.4843 18.142 9.5415 15.9998 9.5415ZM8.5554 15.5669C9.10556 14.7954 10.0768 13.5883 11.3693 12.5793C12.6631 11.5693 14.2343 10.7915 15.9998 10.7915C17.7654 10.7915 19.3366 11.5693 20.6304 12.5793C21.9229 13.5883 22.8941 14.7954 23.4443 15.5669C23.5804 15.7577 23.6452 15.8509 23.6838 15.9251C23.7083 15.9723 23.7082 15.9852 23.7082 15.9978L23.7082 15.9998L23.7082 16.0018C23.7082 16.0145 23.7083 16.0274 23.6838 16.0746C23.6452 16.1488 23.5804 16.2419 23.4443 16.4328C22.8941 17.2043 21.9229 18.4114 20.6304 19.4204C19.3366 20.4304 17.7654 21.2082 15.9998 21.2082C14.2343 21.2082 12.6631 20.4304 11.3693 19.4204C10.0768 18.4114 9.10557 17.2043 8.5554 16.4328C8.41929 16.2419 8.35452 16.1488 8.31591 16.0746C8.29136 16.0274 8.29143 16.0145 8.2915 16.0018L8.2915 15.9998L8.2915 15.9978C8.29143 15.9852 8.29136 15.9723 8.31591 15.9251C8.35452 15.8509 8.41929 15.7577 8.5554 15.5669Z" fill="#161616"/>
</svg>
