<svg width="32" height="32" viewBox="0 0 32 32" fill="none" xmlns="http://www.w3.org/2000/svg">
<path d="M0.5 4C0.5 2.067 2.067 0.5 4 0.5H28C29.933 0.5 31.5 2.067 31.5 4V28C31.5 29.933 29.933 31.5 28 31.5H4C2.067 31.5 0.5 29.933 0.5 28V4Z" stroke="#D2D6DB"/>
<path fill-rule="evenodd" clip-rule="evenodd" d="M20.9455 28L15.396 20.0901L8.44886 28H5.50977L14.0921 18.2311L5.50977 6H13.0557L18.286 13.455L24.8393 6H27.7784L19.5943 15.3165L28.4914 28H20.9455ZM24.2185 25.77H22.2398L9.71811 8.23H11.6971L16.7121 15.2532L17.5793 16.4719L24.2185 25.77Z" fill="#384250"/>
</svg>
