<svg width="32" height="32" viewBox="0 0 32 32" fill="none" xmlns="http://www.w3.org/2000/svg">
<path d="M0.5 4C0.5 2.067 2.067 0.5 4 0.5H28C29.933 0.5 31.5 2.067 31.5 4V28C31.5 29.933 29.933 31.5 28 31.5H4C2.067 31.5 0.5 29.933 0.5 28V4Z" stroke="#D2D6DB"/>
<path fill-rule="evenodd" clip-rule="evenodd" d="M17.5402 13.6186L17.472 13.581C16.7849 13.2024 16.223 12.8928 15.7604 12.7012C15.2908 12.5067 14.8091 12.3827 14.3188 12.5112C14.0403 12.5842 13.7788 12.7138 13.5553 12.8945C13.1451 13.2261 13.0001 13.7011 12.9364 14.1796C12.8749 14.6425 12.8749 15.2413 12.8749 15.9558V16.0449C12.8749 16.7594 12.8749 17.3582 12.9364 17.8211C13.0001 18.2997 13.1451 18.7746 13.5553 19.1062C13.7788 19.2869 14.0403 19.4165 14.3188 19.4895C14.8091 19.618 15.2908 19.494 15.7604 19.2995C16.223 19.1079 16.7849 18.7983 17.472 18.4197L17.5402 18.3821C18.1688 18.0357 18.688 17.7496 19.0617 17.4845C19.436 17.2189 19.7912 16.8898 19.9088 16.4098C19.9748 16.1403 19.9748 15.8604 19.9088 15.5909C19.7912 15.1109 19.436 14.7818 19.0617 14.5162C18.688 14.2511 18.1688 13.965 17.5402 13.6186ZM14.6357 13.7204C14.7251 13.697 14.8912 13.6942 15.2821 13.8561C15.6726 14.0178 16.1734 14.2927 16.9024 14.6944C17.5742 15.0646 18.0299 15.3168 18.3383 15.5356C18.6529 15.7589 18.6886 15.8634 18.6947 15.8883C18.7128 15.9624 18.7128 16.0383 18.6947 16.1124C18.6886 16.1373 18.6529 16.2419 18.3383 16.4651C18.0299 16.6839 17.5742 16.9361 16.9024 17.3064C16.1734 17.708 15.6726 17.9829 15.2821 18.1446C14.8912 18.3065 14.7251 18.3038 14.6357 18.2803C14.5216 18.2504 14.4214 18.199 14.3412 18.1342C14.3031 18.1034 14.224 18.0208 14.1755 17.6563C14.1263 17.2858 14.1249 16.7711 14.1249 16.0004C14.1249 15.2296 14.1263 14.7149 14.1755 14.3444C14.224 13.9799 14.3031 13.8973 14.3412 13.8665C14.4214 13.8017 14.5216 13.7503 14.6357 13.7204Z" fill="#161616"/>
<path fill-rule="evenodd" clip-rule="evenodd" d="M15.9999 8.29199C14.4511 8.29199 12.963 8.44496 11.5806 8.72677L11.4745 8.74837C9.89563 9.06974 8.84363 9.28386 7.93709 10.4494C7.04027 11.6025 7.04077 12.9397 7.04155 15.0107V16.99C7.04077 19.061 7.04027 20.3982 7.93709 21.5512C8.84363 22.7168 9.89563 22.9309 11.4745 23.2523L11.5806 23.2739C12.963 23.5557 14.4511 23.7087 15.9999 23.7087C17.5488 23.7087 19.0368 23.5557 20.4193 23.2739L20.5254 23.2523C22.1042 22.9309 23.1562 22.7168 24.0628 21.5512C24.9596 20.3982 24.9591 19.061 24.9583 16.99L24.9583 15.0107C24.9591 12.9397 24.9596 11.6025 24.0628 10.4494C23.1562 9.28386 22.1042 9.06974 20.5254 8.74837L20.4193 8.72677C19.0368 8.44496 17.5488 8.29199 15.9999 8.29199ZM11.8302 9.95158C13.1283 9.68698 14.5326 9.54199 15.9999 9.54199C17.4672 9.54199 18.8716 9.68698 20.1696 9.95158C21.8797 10.3002 22.4751 10.4442 23.0761 11.2168C23.6803 11.9937 23.7083 12.8659 23.7083 15.1974L23.7083 16.8033C23.7083 19.1348 23.6803 20.007 23.0761 20.7838C22.4751 21.5565 21.8797 21.7005 20.1696 22.0491C18.8716 22.3137 17.4672 22.4587 15.9999 22.4587C14.5326 22.4587 13.1283 22.3137 11.8302 22.0491C10.1201 21.7005 9.52476 21.5565 8.92378 20.7838C8.31959 20.007 8.2916 19.1348 8.2916 16.8033V15.1974C8.2916 12.8659 8.31959 11.9937 8.92378 11.2168C9.52476 10.4442 10.1201 10.3002 11.8302 9.95158Z" fill="#161616"/>
</svg>
